<svg id="Icons" height="512" viewBox="0 0 74 74" width="512" xmlns="http://www.w3.org/2000/svg"><path d="m11 15h2v8h-2z"/><path d="m11 27h2v8h-2z"/><path d="m11 39h2v8h-2z"/><path d="m11 51h2v8h-2z"/><path d="m58 72h-46a1 1 0 0 1 -1-1v-8h2v7h45a3 3 0 0 0 3-3v-60a3 3 0 0 0 -3-3h-45v7h-2v-8a1 1 0 0 1 1-1h46a5 5 0 0 1 5 5v60a5 5 0 0 1 -5 5z"/><path d="m16 16h-8a3 3 0 0 1 0-6h8a3 3 0 0 1 0 6zm-8-4a1 1 0 0 0 0 2h8a1 1 0 0 0 0-2z"/><path d="m16 28h-8a3 3 0 0 1 0-6h8a3 3 0 0 1 0 6zm-8-4a1 1 0 0 0 0 2h8a1 1 0 0 0 0-2z"/><path d="m16 40h-8a3 3 0 0 1 0-6h8a3 3 0 0 1 0 6zm-8-4a1 1 0 0 0 0 2h8a1 1 0 0 0 0-2z"/><path d="m16 52h-8a3 3 0 0 1 0-6h8a3 3 0 0 1 0 6zm-8-4a1 1 0 0 0 0 2h8a1 1 0 0 0 0-2z"/><path d="m16 64h-8a3 3 0 0 1 0-6h8a3 3 0 0 1 0 6zm-8-4a1 1 0 0 0 0 2h8a1 1 0 0 0 0-2z"/><path d="m52 54h-26a1 1 0 0 1 -1-1v-6a9 9 0 0 1 9-9 1 1 0 0 1 .77.36l4.23 5.08 4.23-5.08a1 1 0 0 1 .77-.36 9 9 0 0 1 9 9v6a1 1 0 0 1 -1 1zm-25-2h24v-5a7 7 0 0 0 -6.54-7l-4.69 5.63a1 1 0 0 1 -1.54 0l-4.69-5.63a7 7 0 0 0 -6.54 7z"/><path d="m45 48h2v5h-2z"/><path d="m31 48h2v5h-2z"/><path d="m39 37c-4.43 0-8-5.47-8-10 0-4.19 3.21-7 8-7s8 2.81 8 7c0 4.53-3.57 10-8 10zm0-15c-2.77 0-6 1.31-6 5 0 3.49 2.91 8 6 8s6-4.51 6-8c0-3.69-3.23-5-6-5z"/></svg>